<svg xmlns="http://www.w3.org/2000/svg" width="256" height="256" viewBox="0 0 256 256"><rect width="256" height="256" rx="58" fill="#4268d4"/><path d="M81 153q9-29 32-44q15-12 30 0q24 15 32 44q12 26-12 36q-16 6-35-5q-19 11-35 5q-25-9-12-36" fill="#fff"/><ellipse cx="65" cy="112" rx="18" ry="25" transform="rotate(-25 65 112)" fill="#fff"/><ellipse cx="102" cy="74" rx="18" ry="25" transform="rotate(-10 102 74)" fill="#fff"/><ellipse cx="153" cy="74" rx="18" ry="25" transform="rotate(10 153 74)" fill="#fff"/><ellipse cx="191" cy="112" rx="18" ry="25" transform="rotate(25 191 112)" fill="#fff"/></svg>
